<?xml version="1.0" encoding="UTF-8" standalone="no"?>
<!DOCTYPE svg PUBLIC "-//W3C//DTD SVG 1.1//EN"
 "http://www.w3.org/Graphics/SVG/1.1/DTD/svg11.dtd">
<!-- Generated by graphviz version 2.38.0 (20140413.2041)
 -->
<!-- Title: dependency&#45;cruiser output Pages: 1 -->
<svg width="871pt" height="490pt"
 viewBox="0.00 0.00 871.00 490.00" xmlns="http://www.w3.org/2000/svg" xmlns:xlink="http://www.w3.org/1999/xlink">
<g id="graph0" class="graph" transform="scale(1 1) rotate(0) translate(4 486)">
<title>dependency&#45;cruiser output</title>
<polygon fill="white" stroke="none" points="-4,4 -4,-486 867,-486 867,4 -4,4"/>
<g id="clust1" class="cluster"><title>cluster_/src</title>
<path fill="none" stroke="black" stroke-width="2" d="M20,-26C20,-26 843,-26 843,-26 849,-26 855,-32 855,-38 855,-38 855,-462 855,-462 855,-468 849,-474 843,-474 843,-474 20,-474 20,-474 14,-474 8,-468 8,-462 8,-462 8,-38 8,-38 8,-32 14,-26 20,-26"/>
<text text-anchor="middle" x="431.5" y="-462.8" font-family="Helvetica,sans-Serif" font-weight="bold" font-size="9.00">src</text>
</g>
<g id="clust2" class="cluster"><title>cluster_/src/admin</title>
<path fill="none" stroke="black" stroke-width="2" d="M388.5,-371C388.5,-371 563,-371 563,-371 569,-371 575,-377 575,-383 575,-383 575,-411 575,-411 575,-417 569,-423 563,-423 563,-423 388.5,-423 388.5,-423 382.5,-423 376.5,-417 376.5,-411 376.5,-411 376.5,-383 376.5,-383 376.5,-377 382.5,-371 388.5,-371"/>
<text text-anchor="middle" x="475.75" y="-411.8" font-family="Helvetica,sans-Serif" font-weight="bold" font-size="9.00">admin</text>
</g>
<g id="clust3" class="cluster"><title>cluster_/src/app</title>
<path fill="none" stroke="black" stroke-width="2" d="M28,-308C28,-308 305,-308 305,-308 311,-308 317,-314 317,-320 317,-320 317,-436 317,-436 317,-442 311,-448 305,-448 305,-448 28,-448 28,-448 22,-448 16,-442 16,-436 16,-436 16,-320 16,-320 16,-314 22,-308 28,-308"/>
<text text-anchor="middle" x="166.5" y="-436.8" font-family="Helvetica,sans-Serif" font-weight="bold" font-size="9.00">app</text>
</g>
<g id="clust4" class="cluster"><title>cluster_/src/auth</title>
<path fill="none" stroke="black" stroke-width="2" d="M516,-105C516,-105 835,-105 835,-105 841,-105 847,-111 847,-117 847,-117 847,-203 847,-203 847,-209 841,-215 835,-215 835,-215 516,-215 516,-215 510,-215 504,-209 504,-203 504,-203 504,-117 504,-117 504,-111 510,-105 516,-105"/>
<text text-anchor="middle" x="675.5" y="-203.8" font-family="Helvetica,sans-Serif" font-weight="bold" font-size="9.00">auth</text>
</g>
<g id="clust5" class="cluster"><title>cluster_/src/home</title>
<path fill="none" stroke="black" stroke-width="2" d="M364,-223C364,-223 721,-223 721,-223 727,-223 733,-229 733,-235 733,-235 733,-351 733,-351 733,-357 727,-363 721,-363 721,-363 364,-363 364,-363 358,-363 352,-357 352,-351 352,-351 352,-235 352,-235 352,-229 358,-223 364,-223"/>
<text text-anchor="middle" x="542.5" y="-351.8" font-family="Helvetica,sans-Serif" font-weight="bold" font-size="9.00">home</text>
</g>
<g id="clust6" class="cluster"><title>cluster_/src/menu</title>
<path fill="none" stroke="black" stroke-width="2" d="M132.5,-192C132.5,-192 320,-192 320,-192 326,-192 332,-198 332,-204 332,-204 332,-262 332,-262 332,-268 326,-274 320,-274 320,-274 132.5,-274 132.5,-274 126.5,-274 120.5,-268 120.5,-262 120.5,-262 120.5,-204 120.5,-204 120.5,-198 126.5,-192 132.5,-192"/>
<text text-anchor="middle" x="226.25" y="-262.8" font-family="Helvetica,sans-Serif" font-weight="bold" font-size="9.00">menu</text>
</g>
<g id="clust7" class="cluster"><title>cluster_/src/root</title>
<path fill="none" stroke="black" stroke-width="2" d="M136,-34C136,-34 445.5,-34 445.5,-34 451.5,-34 457.5,-40 457.5,-46 457.5,-46 457.5,-148 457.5,-148 457.5,-154 451.5,-160 445.5,-160 445.5,-160 136,-160 136,-160 130,-160 124,-154 124,-148 124,-148 124,-46 124,-46 124,-40 130,-34 136,-34"/>
<text text-anchor="middle" x="290.75" y="-148.8" font-family="Helvetica,sans-Serif" font-weight="bold" font-size="9.00">root</text>
</g>
<!-- ./app.styles -->
<g id="node1" class="node"><title>./app.styles</title>
<path fill="#ffffcc" stroke="red" d="M305.5,-18C305.5,-18 258.5,-18 258.5,-18 255.5,-18 252.5,-15 252.5,-12 252.5,-12 252.5,-6 252.5,-6 252.5,-3 255.5,-0 258.5,-0 258.5,-0 305.5,-0 305.5,-0 308.5,-0 311.5,-3 311.5,-6 311.5,-6 311.5,-12 311.5,-12 311.5,-15 308.5,-18 305.5,-18"/>
<text text-anchor="middle" x="282" y="-6.8" font-family="Helvetica,sans-Serif" font-size="9.00" fill="red">app.styles</text>
</g>
<!-- src/admin/Admin.tsx -->
<g id="node2" class="node"><title>src/admin/Admin.tsx</title>
<g id="a_node2"><a xlink:href="src/admin/Admin.tsx" xlink:title="Admin.tsx">
<path fill="#ffffcc" stroke="black" d="M561,-397C561,-397 517,-397 517,-397 514,-397 511,-394 511,-391 511,-391 511,-385 511,-385 511,-382 514,-379 517,-379 517,-379 561,-379 561,-379 564,-379 567,-382 567,-385 567,-385 567,-391 567,-391 567,-394 564,-397 561,-397"/>
<text text-anchor="middle" x="539" y="-385.8" font-family="Helvetica,sans-Serif" font-size="9.00">Admin.tsx</text>
</a>
</g>
</g>
<!-- src/admin/index.ts -->
<g id="node3" class="node"><title>src/admin/index.ts</title>
<g id="a_node3"><a xlink:href="src/admin/index.ts" xlink:title="index.ts">
<path fill="#ffffcc" stroke="black" d="M432.5,-397C432.5,-397 390.5,-397 390.5,-397 387.5,-397 384.5,-394 384.5,-391 384.5,-391 384.5,-385 384.5,-385 384.5,-382 387.5,-379 390.5,-379 390.5,-379 432.5,-379 432.5,-379 435.5,-379 438.5,-382 438.5,-385 438.5,-385 438.5,-391 438.5,-391 438.5,-394 435.5,-397 432.5,-397"/>
<text text-anchor="middle" x="411.5" y="-385.8" font-family="Helvetica,sans-Serif" font-size="9.00">index.ts</text>
</a>
</g>
</g>
<!-- src/admin/index.ts&#45;&gt;src/admin/Admin.tsx -->
<g id="edge1" class="edge"><title>src/admin/index.ts&#45;&gt;src/admin/Admin.tsx</title>
<path fill="none" stroke="black" d="M438.504,-388C456.479,-388 480.665,-388 500.69,-388"/>
<polygon fill="black" stroke="black" points="500.727,-391.5 510.727,-388 500.727,-384.5 500.727,-391.5"/>
</g>
<!-- src/app/App.spec.tsx -->
<g id="node4" class="node"><title>src/app/App.spec.tsx</title>
<g id="a_node4"><a xlink:href="src/app/App.spec.tsx" xlink:title="App.spec.tsx">
<path fill="#ffffcc" stroke="black" d="M86,-334C86,-334 30,-334 30,-334 27,-334 24,-331 24,-328 24,-328 24,-322 24,-322 24,-319 27,-316 30,-316 30,-316 86,-316 86,-316 89,-316 92,-319 92,-322 92,-322 92,-328 92,-328 92,-331 89,-334 86,-334"/>
<text text-anchor="middle" x="58" y="-322.8" font-family="Helvetica,sans-Serif" font-size="9.00">App.spec.tsx</text>
</a>
</g>
</g>
<!-- src/app/App.tsx -->
<g id="node5" class="node"><title>src/app/App.tsx</title>
<g id="a_node5"><a xlink:href="src/app/App.tsx" xlink:title="App.tsx">
<path fill="#ffffcc" stroke="black" d="M187,-334C187,-334 145,-334 145,-334 142,-334 139,-331 139,-328 139,-328 139,-322 139,-322 139,-319 142,-316 145,-316 145,-316 187,-316 187,-316 190,-316 193,-319 193,-322 193,-322 193,-328 193,-328 193,-331 190,-334 187,-334"/>
<text text-anchor="middle" x="166" y="-322.8" font-family="Helvetica,sans-Serif" font-size="9.00">App.tsx</text>
</a>
</g>
</g>
<!-- src/app/App.spec.tsx&#45;&gt;src/app/App.tsx -->
<g id="edge4" class="edge"><title>src/app/App.spec.tsx&#45;&gt;src/app/App.tsx</title>
<path fill="none" stroke="black" d="M92.2482,-325C103.894,-325 117.025,-325 128.894,-325"/>
<polygon fill="black" stroke="black" points="128.93,-328.5 138.929,-325 128.929,-321.5 128.93,-328.5"/>
</g>
<!-- src/app/routes.ts -->
<g id="node9" class="node"><title>src/app/routes.ts</title>
<g id="a_node9"><a xlink:href="src/app/routes.ts" xlink:title="routes.ts">
<path fill="#ffffcc" stroke="black" d="M303,-345C303,-345 261,-345 261,-345 258,-345 255,-342 255,-339 255,-339 255,-333 255,-333 255,-330 258,-327 261,-327 261,-327 303,-327 303,-327 306,-327 309,-330 309,-333 309,-333 309,-339 309,-339 309,-342 306,-345 303,-345"/>
<text text-anchor="middle" x="282" y="-333.8" font-family="Helvetica,sans-Serif" font-size="9.00">routes.ts</text>
</a>
</g>
</g>
<!-- src/app/App.spec.tsx&#45;&gt;src/app/routes.ts -->
<g id="edge5" class="edge"><title>src/app/App.spec.tsx&#45;&gt;src/app/routes.ts</title>
<path fill="none" stroke="black" d="M89.706,-334.016C99.4611,-336.467 110.352,-338.78 120.5,-340 162.952,-345.102 212.157,-342.654 244.779,-339.871"/>
<polygon fill="black" stroke="black" points="245.116,-343.355 254.758,-338.965 244.483,-336.384 245.116,-343.355"/>
</g>
<!-- src/auth/index.ts -->
<g id="node14" class="node"><title>src/auth/index.ts</title>
<g id="a_node14"><a xlink:href="src/auth/index.ts" xlink:title="index.ts">
<path fill="#ffffcc" stroke="black" d="M560,-176C560,-176 518,-176 518,-176 515,-176 512,-173 512,-170 512,-170 512,-164 512,-164 512,-161 515,-158 518,-158 518,-158 560,-158 560,-158 563,-158 566,-161 566,-164 566,-164 566,-170 566,-170 566,-173 563,-176 560,-176"/>
<text text-anchor="middle" x="539" y="-164.8" font-family="Helvetica,sans-Serif" font-size="9.00">index.ts</text>
</a>
</g>
</g>
<!-- src/app/App.spec.tsx&#45;&gt;src/auth/index.ts -->
<g id="edge2" class="edge"><title>src/app/App.spec.tsx&#45;&gt;src/auth/index.ts</title>
<path fill="none" stroke="black" d="M87.6264,-315.986C89.2325,-314.815 90.7132,-313.492 92,-312 128.646,-269.503 77.7224,-225.318 120.5,-189 149.199,-164.635 405.599,-165.313 501.775,-166.445"/>
<polygon fill="black" stroke="black" points="501.852,-169.946 511.895,-166.573 501.94,-162.947 501.852,-169.946"/>
</g>
<!-- src/root/index.ts -->
<g id="node29" class="node"><title>src/root/index.ts</title>
<g id="a_node29"><a xlink:href="src/root/index.ts" xlink:title="index.ts">
<path fill="#ffffcc" stroke="black" d="M187,-134C187,-134 145,-134 145,-134 142,-134 139,-131 139,-128 139,-128 139,-122 139,-122 139,-119 142,-116 145,-116 145,-116 187,-116 187,-116 190,-116 193,-119 193,-122 193,-122 193,-128 193,-128 193,-131 190,-134 187,-134"/>
<text text-anchor="middle" x="166" y="-122.8" font-family="Helvetica,sans-Serif" font-size="9.00">index.ts</text>
</a>
</g>
</g>
<!-- src/app/App.spec.tsx&#45;&gt;src/root/index.ts -->
<g id="edge3" class="edge"><title>src/app/App.spec.tsx&#45;&gt;src/root/index.ts</title>
<path fill="none" stroke="black" d="M87.9857,-315.815C89.4618,-314.687 90.8191,-313.421 92,-312 134.542,-260.823 87.7188,-222.916 120.5,-165 125.893,-155.472 134.387,-147.01 142.516,-140.351"/>
<polygon fill="black" stroke="black" points="144.885,-142.946 150.708,-134.095 140.637,-137.382 144.885,-142.946"/>
</g>
<!-- src/app/App.tsx&#45;&gt;./app.styles -->
<g id="edge9" class="edge"><title>src/app/App.tsx&#45;&gt;./app.styles</title>
<path fill="none" stroke="black" d="M176.594,-315.667C185.255,-306.63 197.593,-292.112 204,-277 247.132,-175.268 176.536,-121.455 240,-31 241.902,-28.2888 244.247,-25.8817 246.843,-23.7508"/>
<polygon fill="black" stroke="black" points="248.834,-26.6301 255.198,-18.1593 244.941,-20.8128 248.834,-26.6301"/>
</g>
<!-- src/app/App.tsx&#45;&gt;src/app/routes.ts -->
<g id="edge10" class="edge"><title>src/app/App.tsx&#45;&gt;src/app/routes.ts</title>
<path fill="none" stroke="black" d="M193.154,-327.524C208.505,-329.005 228.128,-330.898 244.932,-332.52"/>
<polygon fill="black" stroke="black" points="244.678,-336.011 254.968,-333.488 245.35,-329.044 244.678,-336.011"/>
</g>
<!-- src/globals.ts -->
<g id="node15" class="node"><title>src/globals.ts</title>
<g id="a_node15"><a xlink:href="src/globals.ts" xlink:title="globals.ts">
<path fill="#ffffcc" stroke="black" d="M304.5,-300C304.5,-300 259.5,-300 259.5,-300 256.5,-300 253.5,-297 253.5,-294 253.5,-294 253.5,-288 253.5,-288 253.5,-285 256.5,-282 259.5,-282 259.5,-282 304.5,-282 304.5,-282 307.5,-282 310.5,-285 310.5,-288 310.5,-288 310.5,-294 310.5,-294 310.5,-297 307.5,-300 304.5,-300"/>
<text text-anchor="middle" x="282" y="-288.8" font-family="Helvetica,sans-Serif" font-size="9.00">globals.ts</text>
</a>
</g>
</g>
<!-- src/app/App.tsx&#45;&gt;src/globals.ts -->
<g id="edge6" class="edge"><title>src/app/App.tsx&#45;&gt;src/globals.ts</title>
<path fill="none" stroke="black" d="M193.154,-317.2C208.07,-312.751 227.018,-307.1 243.496,-302.186"/>
<polygon fill="black" stroke="black" points="244.795,-305.45 253.378,-299.238 242.794,-298.742 244.795,-305.45"/>
</g>
<!-- src/menu/Menu.tsx -->
<g id="node26" class="node"><title>src/menu/Menu.tsx</title>
<g id="a_node26"><a xlink:href="src/menu/Menu.tsx" xlink:title="Menu.tsx">
<path fill="#ffffcc" stroke="black" d="M303,-248C303,-248 261,-248 261,-248 258,-248 255,-245 255,-242 255,-242 255,-236 255,-236 255,-233 258,-230 261,-230 261,-230 303,-230 303,-230 306,-230 309,-233 309,-236 309,-236 309,-242 309,-242 309,-245 306,-248 303,-248"/>
<text text-anchor="middle" x="282" y="-236.8" font-family="Helvetica,sans-Serif" font-size="9.00">Menu.tsx</text>
</a>
</g>
</g>
<!-- src/app/App.tsx&#45;&gt;src/menu/Menu.tsx -->
<g id="edge7" class="edge"><title>src/app/App.tsx&#45;&gt;src/menu/Menu.tsx</title>
<path fill="none" stroke="black" d="M173.621,-315.989C185.335,-300.668 211.207,-269.504 240,-252 241.675,-250.982 243.437,-250.036 245.252,-249.158"/>
<polygon fill="black" stroke="black" points="246.677,-252.356 254.594,-245.315 244.014,-245.882 246.677,-252.356"/>
</g>
<!-- src/app/App.tsx&#45;&gt;src/root/index.ts -->
<g id="edge8" class="edge"><title>src/app/App.tsx&#45;&gt;src/root/index.ts</title>
<path fill="none" stroke="black" d="M148.857,-315.857C133.232,-306.446 111.161,-290.183 101.5,-269 88.2209,-239.885 90.07,-226.889 101.5,-197 110.301,-173.987 130.22,-153.689 145.611,-140.561"/>
<polygon fill="black" stroke="black" points="148.069,-143.073 153.597,-134.034 143.639,-137.653 148.069,-143.073"/>
<path fill="none" stroke="black" d="M150.835,-315.84C137.52,-306.823 119.057,-291.707 111,-273 103.967,-256.672 105.071,-209.76 111,-193 118.213,-172.611 134.427,-153.86 147.391,-141.235"/>
<polygon fill="black" stroke="black" points="150.004,-143.585 154.935,-134.207 145.232,-138.463 150.004,-143.585"/>
</g>
<!-- src/app/app.domain.ts -->
<g id="node6" class="node"><title>src/app/app.domain.ts</title>
<g id="a_node6"><a xlink:href="src/app/app.domain.ts" xlink:title="app.domain.ts">
<path fill="#ffffcc" stroke="black" d="M198,-392C198,-392 134,-392 134,-392 131,-392 128,-389 128,-386 128,-386 128,-380 128,-380 128,-377 131,-374 134,-374 134,-374 198,-374 198,-374 201,-374 204,-377 204,-380 204,-380 204,-386 204,-386 204,-389 201,-392 198,-392"/>
<text text-anchor="middle" x="166" y="-380.8" font-family="Helvetica,sans-Serif" font-size="9.00">app.domain.ts</text>
</a>
</g>
</g>
<!-- src/app/app.reducer.ts -->
<g id="node7" class="node"><title>src/app/app.reducer.ts</title>
<g id="a_node7"><a xlink:href="src/app/app.reducer.ts" xlink:title="app.reducer.ts">
<path fill="#ffffcc" stroke="black" d="M198,-422C198,-422 134,-422 134,-422 131,-422 128,-419 128,-416 128,-416 128,-410 128,-410 128,-407 131,-404 134,-404 134,-404 198,-404 198,-404 201,-404 204,-407 204,-410 204,-410 204,-416 204,-416 204,-419 201,-422 198,-422"/>
<text text-anchor="middle" x="166" y="-410.8" font-family="Helvetica,sans-Serif" font-size="9.00">app.reducer.ts</text>
</a>
</g>
</g>
<!-- src/app/index.ts -->
<g id="node8" class="node"><title>src/app/index.ts</title>
<g id="a_node8"><a xlink:href="src/app/index.ts" xlink:title="index.ts">
<path fill="#ffffcc" stroke="black" d="M79,-370C79,-370 37,-370 37,-370 34,-370 31,-367 31,-364 31,-364 31,-358 31,-358 31,-355 34,-352 37,-352 37,-352 79,-352 79,-352 82,-352 85,-355 85,-358 85,-358 85,-364 85,-364 85,-367 82,-370 79,-370"/>
<text text-anchor="middle" x="58" y="-358.8" font-family="Helvetica,sans-Serif" font-size="9.00">index.ts</text>
</a>
</g>
</g>
<!-- src/app/index.ts&#45;&gt;src/app/App.tsx -->
<g id="edge11" class="edge"><title>src/app/index.ts&#45;&gt;src/app/App.tsx</title>
<path fill="none" stroke="black" d="M85.2023,-352.101C98.4524,-347.601 114.735,-342.071 129.129,-337.183"/>
<polygon fill="black" stroke="black" points="130.389,-340.451 138.732,-333.921 128.137,-333.823 130.389,-340.451"/>
</g>
<!-- src/app/index.ts&#45;&gt;src/app/app.domain.ts -->
<g id="edge12" class="edge"><title>src/app/index.ts&#45;&gt;src/app/app.domain.ts</title>
<path fill="none" stroke="black" d="M85.2023,-366.438C95.0594,-368.484 106.595,-370.878 117.782,-373.2"/>
<polygon fill="black" stroke="black" points="117.398,-376.695 127.901,-375.3 118.821,-369.841 117.398,-376.695"/>
</g>
<!-- src/app/index.ts&#45;&gt;src/app/app.reducer.ts -->
<g id="edge13" class="edge"><title>src/app/index.ts&#45;&gt;src/app/app.reducer.ts</title>
<path fill="none" stroke="black" d="M72.2156,-370.103C84.3668,-378.189 103.085,-389.942 120.5,-398 122.077,-398.73 123.7,-399.442 125.35,-400.134"/>
<polygon fill="black" stroke="black" points="124.381,-403.513 134.97,-403.87 126.915,-396.987 124.381,-403.513"/>
</g>
<!-- src/app/index.ts&#45;&gt;src/app/routes.ts -->
<g id="edge14" class="edge"><title>src/app/index.ts&#45;&gt;src/app/routes.ts</title>
<path fill="none" stroke="black" d="M85.2172,-358.495C114.277,-355.671 162.523,-350.838 204,-346 217.18,-344.463 231.609,-342.629 244.378,-340.954"/>
<polygon fill="black" stroke="black" points="245.195,-344.377 254.649,-339.595 244.277,-337.437 245.195,-344.377"/>
</g>
<!-- src/app/routes.ts&#45;&gt;src/admin/index.ts -->
<g id="edge15" class="edge"><title>src/app/routes.ts&#45;&gt;src/admin/index.ts</title>
<path fill="none" stroke="black" d="M303.116,-345.065C316.819,-351.161 335.414,-359.281 352,-366 359.793,-369.157 368.229,-372.419 376.203,-375.432"/>
<polygon fill="black" stroke="black" points="375.036,-378.733 385.628,-378.962 377.491,-372.177 375.036,-378.733"/>
</g>
<!-- src/app/routes.ts&#45;&gt;src/auth/index.ts -->
<g id="edge16" class="edge"><title>src/app/routes.ts&#45;&gt;src/auth/index.ts</title>
<path fill="none" stroke="black" d="M309.225,-334.458C317.549,-332.683 326.11,-329.301 332,-323 363.842,-288.931 319.233,-253.18 352,-220 387.401,-184.153 414.757,-211.523 463,-197 478.344,-192.381 494.933,-185.908 508.598,-180.157"/>
<polygon fill="black" stroke="black" points="510.163,-183.294 517.972,-176.134 507.402,-176.862 510.163,-183.294"/>
</g>
<!-- src/home/index.ts -->
<g id="node23" class="node"><title>src/home/index.ts</title>
<g id="a_node23"><a xlink:href="src/home/index.ts" xlink:title="index.ts">
<path fill="#ffffcc" stroke="black" d="M432.5,-277C432.5,-277 390.5,-277 390.5,-277 387.5,-277 384.5,-274 384.5,-271 384.5,-271 384.5,-265 384.5,-265 384.5,-262 387.5,-259 390.5,-259 390.5,-259 432.5,-259 432.5,-259 435.5,-259 438.5,-262 438.5,-265 438.5,-265 438.5,-271 438.5,-271 438.5,-274 435.5,-277 432.5,-277"/>
<text text-anchor="middle" x="411.5" y="-265.8" font-family="Helvetica,sans-Serif" font-size="9.00">index.ts</text>
</a>
</g>
</g>
<!-- src/app/routes.ts&#45;&gt;src/home/index.ts -->
<g id="edge17" class="edge"><title>src/app/routes.ts&#45;&gt;src/home/index.ts</title>
<path fill="none" stroke="black" d="M309.071,-333.305C317.096,-331.43 325.516,-328.278 332,-323 347.415,-310.452 336.533,-295.484 352,-283 358.496,-277.757 366.611,-274.324 374.709,-272.082"/>
<polygon fill="black" stroke="black" points="375.474,-275.498 384.468,-269.898 373.945,-268.667 375.474,-275.498"/>
</g>
<!-- src/auth/auth.action.ts -->
<g id="node10" class="node"><title>src/auth/auth.action.ts</title>
<g id="a_node10"><a xlink:href="src/auth/auth.action.ts" xlink:title="auth.action.ts">
<path fill="#ffffcc" stroke="black" d="M829.5,-153C829.5,-153 770.5,-153 770.5,-153 767.5,-153 764.5,-150 764.5,-147 764.5,-147 764.5,-141 764.5,-141 764.5,-138 767.5,-135 770.5,-135 770.5,-135 829.5,-135 829.5,-135 832.5,-135 835.5,-138 835.5,-141 835.5,-141 835.5,-147 835.5,-147 835.5,-150 832.5,-153 829.5,-153"/>
<text text-anchor="middle" x="800" y="-141.8" font-family="Helvetica,sans-Serif" font-size="9.00">auth.action.ts</text>
</a>
</g>
</g>
<!-- src/auth/auth.domain.ts -->
<g id="node11" class="node"><title>src/auth/auth.domain.ts</title>
<g id="a_node11"><a xlink:href="src/auth/auth.domain.ts" xlink:title="auth.domain.ts">
<path fill="#ffffcc" stroke="black" d="M833,-186C833,-186 767,-186 767,-186 764,-186 761,-183 761,-180 761,-180 761,-174 761,-174 761,-171 764,-168 767,-168 767,-168 833,-168 833,-168 836,-168 839,-171 839,-174 839,-174 839,-180 839,-180 839,-183 836,-186 833,-186"/>
<text text-anchor="middle" x="800" y="-174.8" font-family="Helvetica,sans-Serif" font-size="9.00">auth.domain.ts</text>
</a>
</g>
</g>
<!-- src/auth/auth.reducer.ts -->
<g id="node12" class="node"><title>src/auth/auth.reducer.ts</title>
<g id="a_node12"><a xlink:href="src/auth/auth.reducer.ts" xlink:title="auth.reducer.ts">
<path fill="#ffffcc" stroke="black" d="M703,-175C703,-175 637,-175 637,-175 634,-175 631,-172 631,-169 631,-169 631,-163 631,-163 631,-160 634,-157 637,-157 637,-157 703,-157 703,-157 706,-157 709,-160 709,-163 709,-163 709,-169 709,-169 709,-172 706,-175 703,-175"/>
<text text-anchor="middle" x="670" y="-163.8" font-family="Helvetica,sans-Serif" font-size="9.00">auth.reducer.ts</text>
</a>
</g>
</g>
<!-- src/auth/auth.reducer.ts&#45;&gt;src/auth/auth.action.ts -->
<g id="edge18" class="edge"><title>src/auth/auth.reducer.ts&#45;&gt;src/auth/auth.action.ts</title>
<path fill="none" stroke="black" d="M709.058,-159.459C723.308,-157.01 739.624,-154.205 754.413,-151.663"/>
<polygon fill="black" stroke="black" points="755.1,-155.097 764.363,-149.953 753.914,-148.198 755.1,-155.097"/>
</g>
<!-- src/auth/auth.saga.ts -->
<g id="node13" class="node"><title>src/auth/auth.saga.ts</title>
<g id="a_node13"><a xlink:href="src/auth/auth.saga.ts" xlink:title="auth.saga.ts">
<path fill="#ffffcc" stroke="black" d="M698,-131C698,-131 642,-131 642,-131 639,-131 636,-128 636,-125 636,-125 636,-119 636,-119 636,-116 639,-113 642,-113 642,-113 698,-113 698,-113 701,-113 704,-116 704,-119 704,-119 704,-125 704,-125 704,-128 701,-131 698,-131"/>
<text text-anchor="middle" x="670" y="-119.8" font-family="Helvetica,sans-Serif" font-size="9.00">auth.saga.ts</text>
</a>
</g>
</g>
<!-- src/auth/auth.saga.ts&#45;&gt;src/auth/auth.action.ts -->
<g id="edge19" class="edge"><title>src/auth/auth.saga.ts&#45;&gt;src/auth/auth.action.ts</title>
<path fill="none" stroke="black" d="M704.296,-127.723C719.509,-130.338 737.755,-133.474 754.154,-136.292"/>
<polygon fill="black" stroke="black" points="753.633,-139.754 764.082,-137.998 754.819,-132.855 753.633,-139.754"/>
</g>
<!-- src/auth/auth.saga.ts&#45;&gt;src/auth/auth.domain.ts -->
<g id="edge20" class="edge"><title>src/auth/auth.saga.ts&#45;&gt;src/auth/auth.domain.ts</title>
<path fill="none" stroke="black" d="M692.137,-131.082C712.981,-140.039 745.052,-153.819 768.624,-163.948"/>
<polygon fill="black" stroke="black" points="767.262,-167.172 777.832,-167.904 770.026,-160.741 767.262,-167.172"/>
</g>
<!-- src/auth/index.ts&#45;&gt;src/auth/auth.action.ts -->
<g id="edge21" class="edge"><title>src/auth/index.ts&#45;&gt;src/auth/auth.action.ts</title>
<path fill="none" stroke="black" d="M566.191,-160.255C580.509,-156.861 598.618,-153.044 615,-151 662.263,-145.104 716.837,-143.7 754.203,-143.556"/>
<polygon fill="black" stroke="black" points="754.269,-147.056 764.266,-143.547 754.262,-140.056 754.269,-147.056"/>
</g>
<!-- src/auth/index.ts&#45;&gt;src/auth/auth.domain.ts -->
<g id="edge22" class="edge"><title>src/auth/index.ts&#45;&gt;src/auth/auth.domain.ts</title>
<path fill="none" stroke="black" d="M566.212,-173.121C580.538,-176.155 598.645,-179.487 615,-181 667.221,-185.832 680.58,-182.587 733,-181 738.807,-180.824 744.897,-180.562 750.932,-180.253"/>
<polygon fill="black" stroke="black" points="751.184,-183.745 760.976,-179.699 750.798,-176.755 751.184,-183.745"/>
</g>
<!-- src/auth/index.ts&#45;&gt;src/auth/auth.reducer.ts -->
<g id="edge23" class="edge"><title>src/auth/index.ts&#45;&gt;src/auth/auth.reducer.ts</title>
<path fill="none" stroke="black" d="M566.105,-166.798C581.759,-166.676 602.156,-166.518 620.658,-166.375"/>
<polygon fill="black" stroke="black" points="620.727,-169.874 630.7,-166.297 620.673,-162.875 620.727,-169.874"/>
</g>
<!-- src/auth/index.ts&#45;&gt;src/auth/auth.saga.ts -->
<g id="edge24" class="edge"><title>src/auth/index.ts&#45;&gt;src/auth/auth.saga.ts</title>
<path fill="none" stroke="black" d="M564.607,-157.975C579.22,-152.657 598.132,-145.847 615,-140 620.369,-138.139 626.05,-136.206 631.633,-134.327"/>
<polygon fill="black" stroke="black" points="633.113,-137.523 641.486,-131.031 630.892,-130.884 633.113,-137.523"/>
</g>
<!-- src/home/Home.spec.tsx -->
<g id="node16" class="node"><title>src/home/Home.spec.tsx</title>
<g id="a_node16"><a xlink:href="src/home/Home.spec.tsx" xlink:title="Home.spec.tsx">
<path fill="#ffffcc" stroke="black" d="M444.5,-307C444.5,-307 378.5,-307 378.5,-307 375.5,-307 372.5,-304 372.5,-301 372.5,-301 372.5,-295 372.5,-295 372.5,-292 375.5,-289 378.5,-289 378.5,-289 444.5,-289 444.5,-289 447.5,-289 450.5,-292 450.5,-295 450.5,-295 450.5,-301 450.5,-301 450.5,-304 447.5,-307 444.5,-307"/>
<text text-anchor="middle" x="411.5" y="-295.8" font-family="Helvetica,sans-Serif" font-size="9.00">Home.spec.tsx</text>
</a>
</g>
</g>
<!-- src/home/Home.tsx -->
<g id="node17" class="node"><title>src/home/Home.tsx</title>
<g id="a_node17"><a xlink:href="src/home/Home.tsx" xlink:title="Home.tsx">
<path fill="#ffffcc" stroke="black" d="M561,-307C561,-307 517,-307 517,-307 514,-307 511,-304 511,-301 511,-301 511,-295 511,-295 511,-292 514,-289 517,-289 517,-289 561,-289 561,-289 564,-289 567,-292 567,-295 567,-295 567,-301 567,-301 567,-304 564,-307 561,-307"/>
<text text-anchor="middle" x="539" y="-295.8" font-family="Helvetica,sans-Serif" font-size="9.00">Home.tsx</text>
</a>
</g>
</g>
<!-- src/home/Home.spec.tsx&#45;&gt;src/home/Home.tsx -->
<g id="edge25" class="edge"><title>src/home/Home.spec.tsx&#45;&gt;src/home/Home.tsx</title>
<path fill="none" stroke="black" d="M450.836,-298C466.532,-298 484.643,-298 500.276,-298"/>
<polygon fill="black" stroke="black" points="500.643,-301.5 510.643,-298 500.643,-294.5 500.643,-301.5"/>
</g>
<!-- src/home/home.action.ts -->
<g id="node18" class="node"><title>src/home/home.action.ts</title>
<g id="a_node18"><a xlink:href="src/home/home.action.ts" xlink:title="home.action.ts">
<path fill="#ffffcc" stroke="black" d="M702.5,-271C702.5,-271 637.5,-271 637.5,-271 634.5,-271 631.5,-268 631.5,-265 631.5,-265 631.5,-259 631.5,-259 631.5,-256 634.5,-253 637.5,-253 637.5,-253 702.5,-253 702.5,-253 705.5,-253 708.5,-256 708.5,-259 708.5,-259 708.5,-265 708.5,-265 708.5,-268 705.5,-271 702.5,-271"/>
<text text-anchor="middle" x="670" y="-259.8" font-family="Helvetica,sans-Serif" font-size="9.00">home.action.ts</text>
</a>
</g>
</g>
<!-- src/home/Home.tsx&#45;&gt;src/home/home.action.ts -->
<g id="edge26" class="edge"><title>src/home/Home.tsx&#45;&gt;src/home/home.action.ts</title>
<path fill="none" stroke="black" d="M567.043,-290.453C584.36,-285.62 607.191,-279.249 626.857,-273.761"/>
<polygon fill="black" stroke="black" points="627.82,-277.126 636.512,-271.067 625.939,-270.383 627.82,-277.126"/>
</g>
<!-- src/home/home.worker&#45;factory.ts -->
<g id="node20" class="node"><title>src/home/home.worker&#45;factory.ts</title>
<g id="a_node20"><a xlink:href="src/home/home.worker-factory.ts" xlink:title="home.worker&#45;factory.ts">
<path fill="#ffffcc" stroke="black" d="M719,-304C719,-304 621,-304 621,-304 618,-304 615,-301 615,-298 615,-298 615,-292 615,-292 615,-289 618,-286 621,-286 621,-286 719,-286 719,-286 722,-286 725,-289 725,-292 725,-292 725,-298 725,-298 725,-301 722,-304 719,-304"/>
<text text-anchor="middle" x="670" y="-292.8" font-family="Helvetica,sans-Serif" font-size="9.00">home.worker&#45;factory.ts</text>
</a>
</g>
</g>
<!-- src/home/Home.tsx&#45;&gt;src/home/home.worker&#45;factory.ts -->
<g id="edge27" class="edge"><title>src/home/Home.tsx&#45;&gt;src/home/home.worker&#45;factory.ts</title>
<path fill="none" stroke="black" d="M567.043,-297.371C578.111,-297.114 591.431,-296.804 604.738,-296.494"/>
<polygon fill="black" stroke="black" points="604.958,-299.99 614.874,-296.259 604.795,-292.992 604.958,-299.99"/>
</g>
<!-- src/home/home.saga.ts -->
<g id="node19" class="node"><title>src/home/home.saga.ts</title>
<g id="a_node19"><a xlink:href="src/home/home.saga.ts" xlink:title="home.saga.ts">
<path fill="#ffffcc" stroke="black" d="M570,-249C570,-249 508,-249 508,-249 505,-249 502,-246 502,-243 502,-243 502,-237 502,-237 502,-234 505,-231 508,-231 508,-231 570,-231 570,-231 573,-231 576,-234 576,-237 576,-237 576,-243 576,-243 576,-246 573,-249 570,-249"/>
<text text-anchor="middle" x="539" y="-237.8" font-family="Helvetica,sans-Serif" font-size="9.00">home.saga.ts</text>
</a>
</g>
</g>
<!-- src/home/home.saga.ts&#45;&gt;src/home/home.action.ts -->
<g id="edge28" class="edge"><title>src/home/home.saga.ts&#45;&gt;src/home/home.action.ts</title>
<path fill="none" stroke="black" d="M576.277,-246.187C590.203,-248.562 606.316,-251.31 621.164,-253.842"/>
<polygon fill="black" stroke="black" points="620.752,-257.322 631.199,-255.553 621.929,-250.422 620.752,-257.322"/>
</g>
<!-- src/home/home.worker.js -->
<g id="node21" class="node"><title>src/home/home.worker.js</title>
<g id="a_node21"><a xlink:href="src/home/home.worker.js" xlink:title="home.worker.js">
<path fill="#ffffcc" stroke="black" d="M573,-337C573,-337 505,-337 505,-337 502,-337 499,-334 499,-331 499,-331 499,-325 499,-325 499,-322 502,-319 505,-319 505,-319 573,-319 573,-319 576,-319 579,-322 579,-325 579,-325 579,-331 579,-331 579,-334 576,-337 573,-337"/>
<text text-anchor="middle" x="539" y="-325.8" font-family="Helvetica,sans-Serif" font-size="9.00">home.worker.js</text>
</a>
</g>
</g>
<!-- src/home/home.worker.spec.ts -->
<g id="node22" class="node"><title>src/home/home.worker.spec.ts</title>
<g id="a_node22"><a xlink:href="src/home/home.worker.spec.ts" xlink:title="home.worker.spec.ts">
<path fill="#ffffcc" stroke="black" d="M457,-337C457,-337 366,-337 366,-337 363,-337 360,-334 360,-331 360,-331 360,-325 360,-325 360,-322 363,-319 366,-319 366,-319 457,-319 457,-319 460,-319 463,-322 463,-325 463,-325 463,-331 463,-331 463,-334 460,-337 457,-337"/>
<text text-anchor="middle" x="411.5" y="-325.8" font-family="Helvetica,sans-Serif" font-size="9.00">home.worker.spec.ts</text>
</a>
</g>
</g>
<!-- src/home/home.worker.spec.ts&#45;&gt;src/home/home.worker.js -->
<g id="edge29" class="edge"><title>src/home/home.worker.spec.ts&#45;&gt;src/home/home.worker.js</title>
<path fill="none" stroke="black" d="M463.184,-328C471.599,-328 480.316,-328 488.696,-328"/>
<polygon fill="black" stroke="black" points="488.709,-331.5 498.709,-328 488.709,-324.5 488.709,-331.5"/>
</g>
<!-- src/home/index.ts&#45;&gt;src/home/Home.tsx -->
<g id="edge30" class="edge"><title>src/home/index.ts&#45;&gt;src/home/Home.tsx</title>
<path fill="none" stroke="black" d="M438.504,-274.216C456.561,-278.533 480.887,-284.347 500.965,-289.147"/>
<polygon fill="black" stroke="black" points="500.188,-292.56 510.727,-291.481 501.815,-285.752 500.188,-292.56"/>
</g>
<!-- src/home/index.ts&#45;&gt;src/home/home.action.ts -->
<g id="edge31" class="edge"><title>src/home/index.ts&#45;&gt;src/home/home.action.ts</title>
<path fill="none" stroke="black" d="M438.506,-267.392C481.341,-266.39 567.358,-264.378 621.343,-263.115"/>
<polygon fill="black" stroke="black" points="621.446,-266.613 631.361,-262.88 621.282,-259.615 621.446,-266.613"/>
</g>
<!-- src/home/index.ts&#45;&gt;src/home/home.saga.ts -->
<g id="edge32" class="edge"><title>src/home/index.ts&#45;&gt;src/home/home.saga.ts</title>
<path fill="none" stroke="black" d="M438.504,-262.198C453.819,-258.781 473.644,-254.358 491.562,-250.361"/>
<polygon fill="black" stroke="black" points="492.563,-253.724 501.561,-248.13 491.038,-246.892 492.563,-253.724"/>
</g>
<!-- src/home/index.ts&#45;&gt;src/home/home.worker&#45;factory.ts -->
<g id="edge33" class="edge"><title>src/home/index.ts&#45;&gt;src/home/home.worker&#45;factory.ts</title>
<path fill="none" stroke="black" d="M438.777,-270.019C471.619,-272.622 529.532,-277.476 579,-283 587.332,-283.93 596.087,-284.992 604.729,-286.091"/>
<polygon fill="black" stroke="black" points="604.425,-289.58 614.791,-287.391 605.322,-282.638 604.425,-289.58"/>
</g>
<!-- src/index.ts -->
<g id="node24" class="node"><title>src/index.ts</title>
<g id="a_node24"><a xlink:href="src/index.ts" xlink:title="index.ts">
<path fill="#ffffcc" stroke="black" d="M79,-74C79,-74 37,-74 37,-74 34,-74 31,-71 31,-68 31,-68 31,-62 31,-62 31,-59 34,-56 37,-56 37,-56 79,-56 79,-56 82,-56 85,-59 85,-62 85,-62 85,-68 85,-68 85,-71 82,-74 79,-74"/>
<text text-anchor="middle" x="58" y="-62.8" font-family="Helvetica,sans-Serif" font-size="9.00">index.ts</text>
</a>
</g>
</g>
<!-- src/root/root.tsx -->
<g id="node35" class="node"><title>src/root/root.tsx</title>
<g id="a_node35"><a xlink:href="src/root/root.tsx" xlink:title="root.tsx">
<path fill="#ffffcc" stroke="black" d="M187,-74C187,-74 145,-74 145,-74 142,-74 139,-71 139,-68 139,-68 139,-62 139,-62 139,-59 142,-56 145,-56 145,-56 187,-56 187,-56 190,-56 193,-59 193,-62 193,-62 193,-68 193,-68 193,-71 190,-74 187,-74"/>
<text text-anchor="middle" x="166" y="-62.8" font-family="Helvetica,sans-Serif" font-size="9.00">root.tsx</text>
</a>
</g>
</g>
<!-- src/index.ts&#45;&gt;src/root/root.tsx -->
<g id="edge34" class="edge"><title>src/index.ts&#45;&gt;src/root/root.tsx</title>
<path fill="none" stroke="black" d="M85.2023,-65C98.325,-65 114.422,-65 128.713,-65"/>
<polygon fill="black" stroke="black" points="128.732,-68.5001 138.732,-65 128.732,-61.5001 128.732,-68.5001"/>
</g>
<!-- src/menu/Menu.spec.tsx -->
<g id="node25" class="node"><title>src/menu/Menu.spec.tsx</title>
<g id="a_node25"><a xlink:href="src/menu/Menu.spec.tsx" xlink:title="Menu.spec.tsx">
<path fill="#ffffcc" stroke="black" d="M197.5,-248C197.5,-248 134.5,-248 134.5,-248 131.5,-248 128.5,-245 128.5,-242 128.5,-242 128.5,-236 128.5,-236 128.5,-233 131.5,-230 134.5,-230 134.5,-230 197.5,-230 197.5,-230 200.5,-230 203.5,-233 203.5,-236 203.5,-236 203.5,-242 203.5,-242 203.5,-245 200.5,-248 197.5,-248"/>
<text text-anchor="middle" x="166" y="-236.8" font-family="Helvetica,sans-Serif" font-size="9.00">Menu.spec.tsx</text>
</a>
</g>
</g>
<!-- src/menu/Menu.spec.tsx&#45;&gt;src/menu/Menu.tsx -->
<g id="edge36" class="edge"><title>src/menu/Menu.spec.tsx&#45;&gt;src/menu/Menu.tsx</title>
<path fill="none" stroke="black" d="M203.698,-239C216.846,-239 231.652,-239 244.761,-239"/>
<polygon fill="black" stroke="black" points="244.846,-242.5 254.846,-239 244.846,-235.5 244.846,-242.5"/>
</g>
<!-- src/menu/Menu.spec.tsx&#45;&gt;src/root/index.ts -->
<g id="edge35" class="edge"><title>src/menu/Menu.spec.tsx&#45;&gt;src/root/index.ts</title>
<path fill="none" stroke="black" d="M128.29,-234.103C117.8,-230.765 107.616,-225.211 101.5,-216 83.3905,-188.726 117.332,-157.787 142.473,-139.919"/>
<polygon fill="black" stroke="black" points="144.61,-142.698 150.898,-134.171 140.665,-136.915 144.61,-142.698"/>
<path fill="none" stroke="black" d="M128.4,-233.288C121.475,-230.443 115.135,-226.228 111,-220 92.9737,-192.851 123.569,-159.584 145.874,-140.486"/>
<polygon fill="black" stroke="black" points="148.107,-143.181 153.611,-134.128 143.663,-137.773 148.107,-143.181"/>
</g>
<!-- src/menu/Menu.tsx&#45;&gt;src/auth/index.ts -->
<g id="edge37" class="edge"><title>src/menu/Menu.tsx&#45;&gt;src/auth/index.ts</title>
<path fill="none" stroke="black" d="M309.159,-232.975C316.762,-230.703 324.92,-227.739 332,-224 342.066,-218.684 341.729,-212.909 352,-208 400.678,-184.735 462.861,-174.471 501.562,-170.086"/>
<polygon fill="black" stroke="black" points="502.248,-173.533 511.824,-169 501.511,-166.572 502.248,-173.533"/>
</g>
<!-- src/menu/index.ts -->
<g id="node27" class="node"><title>src/menu/index.ts</title>
<g id="a_node27"><a xlink:href="src/menu/index.ts" xlink:title="index.ts">
<path fill="#ffffcc" stroke="black" d="M187,-218C187,-218 145,-218 145,-218 142,-218 139,-215 139,-212 139,-212 139,-206 139,-206 139,-203 142,-200 145,-200 145,-200 187,-200 187,-200 190,-200 193,-203 193,-206 193,-206 193,-212 193,-212 193,-215 190,-218 187,-218"/>
<text text-anchor="middle" x="166" y="-206.8" font-family="Helvetica,sans-Serif" font-size="9.00">index.ts</text>
</a>
</g>
</g>
<!-- src/menu/index.ts&#45;&gt;src/menu/Menu.tsx -->
<g id="edge38" class="edge"><title>src/menu/index.ts&#45;&gt;src/menu/Menu.tsx</title>
<path fill="none" stroke="black" d="M193.154,-215.883C208.505,-219.922 228.128,-225.086 244.932,-229.509"/>
<polygon fill="black" stroke="black" points="244.406,-232.989 254.968,-232.149 246.188,-226.22 244.406,-232.989"/>
</g>
<!-- src/menu/menu.domain.ts -->
<g id="node28" class="node"><title>src/menu/menu.domain.ts</title>
<g id="a_node28"><a xlink:href="src/menu/menu.domain.ts" xlink:title="menu.domain.ts">
<path fill="#ffffcc" stroke="black" d="M318,-218C318,-218 246,-218 246,-218 243,-218 240,-215 240,-212 240,-212 240,-206 240,-206 240,-203 243,-200 246,-200 246,-200 318,-200 318,-200 321,-200 324,-203 324,-206 324,-206 324,-212 324,-212 324,-215 321,-218 318,-218"/>
<text text-anchor="middle" x="282" y="-206.8" font-family="Helvetica,sans-Serif" font-size="9.00">menu.domain.ts</text>
</a>
</g>
</g>
<!-- src/menu/index.ts&#45;&gt;src/menu/menu.domain.ts -->
<g id="edge39" class="edge"><title>src/menu/index.ts&#45;&gt;src/menu/menu.domain.ts</title>
<path fill="none" stroke="black" d="M193.154,-209C204.047,-209 217.09,-209 229.751,-209"/>
<polygon fill="black" stroke="black" points="229.774,-212.5 239.774,-209 229.774,-205.5 229.774,-212.5"/>
</g>
<!-- src/root/root.domain.ts -->
<g id="node30" class="node"><title>src/root/root.domain.ts</title>
<g id="a_node30"><a xlink:href="src/root/root.domain.ts" xlink:title="root.domain.ts">
<path fill="#ffffcc" stroke="black" d="M314,-134C314,-134 250,-134 250,-134 247,-134 244,-131 244,-128 244,-128 244,-122 244,-122 244,-119 247,-116 250,-116 250,-116 314,-116 314,-116 317,-116 320,-119 320,-122 320,-122 320,-128 320,-128 320,-131 317,-134 314,-134"/>
<text text-anchor="middle" x="282" y="-122.8" font-family="Helvetica,sans-Serif" font-size="9.00">root.domain.ts</text>
</a>
</g>
</g>
<!-- src/root/index.ts&#45;&gt;src/root/root.domain.ts -->
<g id="edge40" class="edge"><title>src/root/index.ts&#45;&gt;src/root/root.domain.ts</title>
<path fill="none" stroke="black" d="M193.154,-125C205.097,-125 219.626,-125 233.402,-125"/>
<polygon fill="black" stroke="black" points="233.734,-128.5 243.734,-125 233.734,-121.5 233.734,-128.5"/>
</g>
<!-- src/root/root.reducer.ts -->
<g id="node31" class="node"><title>src/root/root.reducer.ts</title>
<g id="a_node31"><a xlink:href="src/root/root.reducer.ts" xlink:title="root.reducer.ts">
<path fill="#ffffcc" stroke="black" d="M443.5,-125C443.5,-125 379.5,-125 379.5,-125 376.5,-125 373.5,-122 373.5,-119 373.5,-119 373.5,-113 373.5,-113 373.5,-110 376.5,-107 379.5,-107 379.5,-107 443.5,-107 443.5,-107 446.5,-107 449.5,-110 449.5,-113 449.5,-113 449.5,-119 449.5,-119 449.5,-122 446.5,-125 443.5,-125"/>
<text text-anchor="middle" x="411.5" y="-113.8" font-family="Helvetica,sans-Serif" font-size="9.00">root.reducer.ts</text>
</a>
</g>
</g>
<!-- src/root/index.ts&#45;&gt;src/root/root.reducer.ts -->
<g id="edge41" class="edge"><title>src/root/index.ts&#45;&gt;src/root/root.reducer.ts</title>
<path fill="none" stroke="black" d="M193.157,-118.285C206.981,-115.078 224.296,-111.597 240,-110 281.526,-105.778 328.999,-108.022 363.289,-110.893"/>
<polygon fill="black" stroke="black" points="363.216,-114.4 373.486,-111.798 363.835,-107.428 363.216,-114.4"/>
</g>
<!-- src/root/root.saga.ts -->
<g id="node32" class="node"><title>src/root/root.saga.ts</title>
<g id="a_node32"><a xlink:href="src/root/root.saga.ts" xlink:title="root.saga.ts">
<path fill="#ffffcc" stroke="black" d="M308.5,-60C308.5,-60 255.5,-60 255.5,-60 252.5,-60 249.5,-57 249.5,-54 249.5,-54 249.5,-48 249.5,-48 249.5,-45 252.5,-42 255.5,-42 255.5,-42 308.5,-42 308.5,-42 311.5,-42 314.5,-45 314.5,-48 314.5,-48 314.5,-54 314.5,-54 314.5,-57 311.5,-60 308.5,-60"/>
<text text-anchor="middle" x="282" y="-48.8" font-family="Helvetica,sans-Serif" font-size="9.00">root.saga.ts</text>
</a>
</g>
</g>
<!-- src/root/index.ts&#45;&gt;src/root/root.saga.ts -->
<g id="edge42" class="edge"><title>src/root/index.ts&#45;&gt;src/root/root.saga.ts</title>
<path fill="none" stroke="black" d="M193.355,-116.241C197.095,-114.459 200.764,-112.385 204,-110 224.34,-95.0099 219.405,-80.6377 240,-66 240.502,-65.6432 241.013,-65.294 241.533,-64.9522"/>
<polygon fill="black" stroke="black" points="243.413,-67.9135 250.508,-60.045 240.055,-61.7716 243.413,-67.9135"/>
</g>
<!-- src/root/root.store.ts -->
<g id="node34" class="node"><title>src/root/root.store.ts</title>
<g id="a_node34"><a xlink:href="src/root/root.store.ts" xlink:title="root.store.ts">
<path fill="#ffffcc" stroke="black" d="M308.5,-90C308.5,-90 255.5,-90 255.5,-90 252.5,-90 249.5,-87 249.5,-84 249.5,-84 249.5,-78 249.5,-78 249.5,-75 252.5,-72 255.5,-72 255.5,-72 308.5,-72 308.5,-72 311.5,-72 314.5,-75 314.5,-78 314.5,-78 314.5,-84 314.5,-84 314.5,-87 311.5,-90 308.5,-90"/>
<text text-anchor="middle" x="282" y="-78.8" font-family="Helvetica,sans-Serif" font-size="9.00">root.store.ts</text>
</a>
</g>
</g>
<!-- src/root/index.ts&#45;&gt;src/root/root.store.ts -->
<g id="edge43" class="edge"><title>src/root/index.ts&#45;&gt;src/root/root.store.ts</title>
<path fill="none" stroke="black" d="M190.345,-115.99C206.91,-109.596 229.383,-100.922 247.81,-93.8103"/>
<polygon fill="black" stroke="black" points="249.226,-97.0154 257.295,-90.1494 246.705,-90.485 249.226,-97.0154"/>
</g>
<!-- src/root/root.reducer.ts&#45;&gt;src/app/index.ts -->
<g id="edge44" class="edge"><title>src/root/root.reducer.ts&#45;&gt;src/app/index.ts</title>
<path fill="none" stroke="black" d="M382.66,-125.024C367.713,-129.739 348.93,-135.457 332,-140 238.808,-165.009 187.312,-119.383 120.5,-189 73.2103,-238.275 130.298,-283.453 92,-340 90.6696,-341.964 89.0876,-343.784 87.3476,-345.461"/>
<polygon fill="black" stroke="black" points="84.7694,-343.03 78.9971,-351.915 89.0499,-348.569 84.7694,-343.03"/>
</g>
<!-- src/root/root.reducer.ts&#45;&gt;src/auth/index.ts -->
<g id="edge45" class="edge"><title>src/root/root.reducer.ts&#45;&gt;src/auth/index.ts</title>
<path fill="none" stroke="black" d="M434.648,-125C454.508,-133.071 483.878,-145.006 506.238,-154.093"/>
<polygon fill="black" stroke="black" points="505.069,-157.396 515.651,-157.918 507.705,-150.911 505.069,-157.396"/>
</g>
<!-- src/root/root.saga.ts&#45;&gt;src/auth/auth.saga.ts -->
<g id="edge46" class="edge"><title>src/root/root.saga.ts&#45;&gt;src/auth/auth.saga.ts</title>
<path fill="none" stroke="black" d="M314.792,-50.5475C350.957,-50.5445 411.655,-52.0966 463,-61 525.169,-71.7801 595.126,-94.9491 635.433,-109.427"/>
<polygon fill="black" stroke="black" points="634.424,-112.784 645.018,-112.907 636.813,-106.204 634.424,-112.784"/>
</g>
<!-- src/root/root.saga.ts&#45;&gt;src/home/home.saga.ts -->
<g id="edge47" class="edge"><title>src/root/root.saga.ts&#45;&gt;src/home/home.saga.ts</title>
<path fill="none" stroke="black" d="M314.879,-56.0899C360.692,-64.0129 441.961,-80.5328 463,-101 501.997,-138.937 464.881,-175.622 499,-218 501.212,-220.748 503.865,-223.212 506.734,-225.408"/>
<polygon fill="black" stroke="black" points="504.905,-228.394 515.2,-230.896 508.712,-222.52 504.905,-228.394"/>
</g>
<!-- src/root/root.spec.tsx -->
<g id="node33" class="node"><title>src/root/root.spec.tsx</title>
<g id="a_node33"><a xlink:href="src/root/root.spec.tsx" xlink:title="root.spec.tsx">
<path fill="#ffffcc" stroke="black" d="M194,-104C194,-104 138,-104 138,-104 135,-104 132,-101 132,-98 132,-98 132,-92 132,-92 132,-89 135,-86 138,-86 138,-86 194,-86 194,-86 197,-86 200,-89 200,-92 200,-92 200,-98 200,-98 200,-101 197,-104 194,-104"/>
<text text-anchor="middle" x="166" y="-92.8" font-family="Helvetica,sans-Serif" font-size="9.00">root.spec.tsx</text>
</a>
</g>
</g>
<!-- src/root/root.store.ts&#45;&gt;src/root/root.reducer.ts -->
<g id="edge48" class="edge"><title>src/root/root.store.ts&#45;&gt;src/root/root.reducer.ts</title>
<path fill="none" stroke="black" d="M314.517,-89.6517C330.544,-94.0514 350.261,-99.4637 367.646,-104.236"/>
<polygon fill="black" stroke="black" points="366.997,-107.688 377.567,-106.96 368.85,-100.937 366.997,-107.688"/>
</g>
<!-- src/root/root.tsx&#45;&gt;src/app/App.tsx -->
<g id="edge49" class="edge"><title>src/root/root.tsx&#45;&gt;src/app/App.tsx</title>
<path fill="none" stroke="black" d="M138.888,-67.3052C126.682,-69.885 113.427,-75.1912 106.25,-86 94.8798,-103.124 97.9067,-252.214 106.25,-271 113.443,-287.197 128.161,-300.592 141.188,-309.99"/>
<polygon fill="black" stroke="black" points="139.582,-313.13 149.824,-315.843 143.51,-307.336 139.582,-313.13"/>
</g>
<!-- src/root/root.tsx&#45;&gt;src/root/root.saga.ts -->
<g id="edge50" class="edge"><title>src/root/root.tsx&#45;&gt;src/root/root.saga.ts</title>
<path fill="none" stroke="black" d="M193.154,-61.7881C206.72,-60.1221 223.622,-58.0464 238.967,-56.1619"/>
<polygon fill="black" stroke="black" points="239.783,-59.5882 249.281,-54.8953 238.929,-52.6404 239.783,-59.5882"/>
</g>
<!-- src/root/root.tsx&#45;&gt;src/root/root.store.ts -->
<g id="edge51" class="edge"><title>src/root/root.tsx&#45;&gt;src/root/root.store.ts</title>
<path fill="none" stroke="black" d="M193.154,-68.6707C206.72,-70.5748 223.622,-72.947 238.967,-75.1006"/>
<polygon fill="black" stroke="black" points="238.892,-78.6243 249.281,-76.5483 239.865,-71.6923 238.892,-78.6243"/>
</g>
</g>
</svg>
